{"title":"The Outlaw Josey Wales - [Action/Western] - (1976) - DVDRip x264","uid":9855413,"size":1959863477,"categoryP":"video","categoryS":"other","magnet":"?xt=urn:btih:a3bf904f253244820353fa61f1c3cafc50a90f7b&amp;dn=The+Outlaw+Josey+Wales+-+%5BAction%2FWestern%5D+-+%281976%29+-+DVDRip+x264&amp;tr=udp%3A%2F%2Ftracker.openbittorrent.com%3A80&amp;tr=udp%3A%2F%2Fopen.demonii.com%3A1337&amp;tr=udp%3A%2F%2Ftracker.coppersurfer.tk%3A6969&amp;tr=udp%3A%2F%2Fexodus.desync.com%3A6969","seeders":1,"leechers":0,"uploader":"Faithwyn","files":3,"time":1396216814,"description":"\nA Missouri farmer joins a Confederate guerrilla unit and winds up on the run from the Union soldiers who murdered his family.\n\n\nMovie:\nTitle: The Outlaw Josey Wales\nGenre: Action/Western\nRating: PG\nYear: 1976\nStars: Clint Eastwood, Sondra Locke, Chief Dan George\nDirector: Clint Eastwood\nWriters: Forrest Carter (book), Philip Kaufman (screenplay)\nLength: 2:15\nScreen: Letterbox\nIMDB Rating: 7.9\n\n\n\nGeneral:\nComplete name : The Outlaw Josey Wales.mp4\nFormat : MPEG-4\nFormat profile : Base Media / Version 2\nCodec ID : mp42\nFile size : 1.83 GiB\nDuration : 2h 15mn\nOverall bit rate mode : Variable\nOverall bit rate : 1 923 Kbps\nEncoded date : UTC 2014-03-30 13:21:38\nTagged date : UTC 2014-03-30 14:08:56\n\nVideo:\nID : 1\nFormat : AVC\nFormat/Info : Advanced Video Codec\nFormat profile : &lt;a class=&quot;__cf_email__&quot; href=&quot;/cdn-cgi/l/email-protection&quot; data-cfemail=&quot;d994b8b0b79995edf7e9&quot;&gt;[email&amp;#160;protected]&lt;/a&gt;&lt;script cf-hash='f9e31' type=&quot;text/javascript&quot;&gt;\n/* &lt;![CDATA[ */!function(){try{var t=&quot;currentScript&quot;in document?document.currentScript:function(){for(var t=document.getElementsByTagName(&quot;script&quot;),e=t.length;e--;)if(t[e].getAttribute(&quot;cf-hash&quot;))return t[e]}();if(t&amp;&amp;t.previousSibling){var e,r,n,i,c=t.previousSibling,a=c.getAttribute(&quot;data-cfemail&quot;);if(a){for(e=&quot;&quot;,r=parseInt(a.substr(0,2),16),n=2;a.length-n;n+=2)i=parseInt(a.substr(n,2),16)^r,e+=String.fromCharCode(i);e=document.createTextNode(e),c.parentNode.replaceChild(e,c)}}}catch(u){}}();/* ]]&gt; */&lt;/script&gt;\nFormat settings, CABAC : Yes\nFormat settings, ReFrames : 4 frames\nCodec ID : avc1\nCodec ID/Info : Advanced Video Coding\nDuration : 2h 15mn\nBit rate mode : Variable\nBit rate : 1 756 Kbps\nWidth : 720 pixels\nHeight : 366 pixels\nDisplay aspect ratio : 2.35:1\nOriginal display aspect ratio : 2.35:1\nFrame rate mode : Variable\nFrame rate : 26.697 fps\nMinimum frame rate : 8.367 fps\nMaximum frame rate : 29.970 fps\nColor space : YUV\nChroma subsampling : 4:2:0\nBit depth : 8 bits\nScan type : Progressive\nBits/(Pixel*Frame) : 0.250\nStream size : 1.67 GiB (91%)\nWriting library : x264 core 130 r2273 b3065e6\nEncoded date : UTC 2014-03-30 13:21:38\nTagged date : UTC 2014-03-30 14:08:56\nColor primaries : BT.601 NTSC\nTransfer characteristics : BT.709\nMatrix coefficients : BT.601\n\nAudio:\nID : 2\nFormat : AAC\nFormat/Info : Advanced Audio Codec\nFormat profile : LC\nCodec ID : 40\nDuration : 2h 15mn\nBit rate mode : Variable\nBit rate : 160 Kbps\nMaximum bit rate : 319 Kbps\nChannel(s) : 2 channels\nChannel positions : Front: L R\nSampling rate : 48.0 KHz\nCompression mode : Lossy\nDelay relative to video : 170ms\nStream size : 155 MiB (8%)\nLanguage : English\nEncoded date : UTC 2014-03-30 13:21:38\nTagged date : UTC 2014-03-30 14:08:55\n\nEnglish Subtitles:\nText #1\nID : 3\nFormat : mp4s\nCodec ID : E0\nDuration : 2h 13mn\nBit rate mode : Variable\nBit rate : 1 670 bps\nMaximum bit rate : 4 282 Mbps\nDelay relative to video : 170ms\nStream size : 1.59 MiB (0%)\nLanguage : English\nEncoded date : UTC 2014-03-30 13:21:38\nTagged date : UTC 2014-03-30 14:08:25\n\nText #2\nID : 4\nFormat : Apple text\nCodec ID : text\nDuration : 2h 15mn\nBit rate mode : Variable\nBit rate : 1 bps\nStream size : 831 Bytes (0%)\nEncoded date : UTC 2014-03-30 13:21:38\nTagged date : UTC 2014-03-30 14:08:56\n\nMovie Info:\nThe Outlaw Josey Wales is a 1976 American revisionist Western film set during and after the American Civil War. It was directed by and starred Clint Eastwood (as the eponymous Josey Wales), with Chief Dan George, Sondra Locke, Sam Bottoms, and Geraldine Keams.\n\nThe film was adapted by Sonia Chernus and Philip Kaufman from author Forrest Carter's 1973 novel The Rebel Outlaw: Josey Wales (republished, as shown in the movie's opening credits, as Gone to Texas). In 1996, the film was selected for preservation in the National Film Registry of the Library of Congress.\n\n","torrent":{"xt":"urn:btih:a3bf904f253244820353fa61f1c3cafc50a90f7b","amp;dn":"The+Outlaw+Josey+Wales+-+%5BAction%2FWestern%5D+-+%281976%29+-+DVDRip+x264","amp;tr":["udp%3A%2F%2Ftracker.openbittorrent.com%3A80","udp%3A%2F%2Fopen.demonii.com%3A1337","udp%3A%2F%2Ftracker.coppersurfer.tk%3A6969","udp%3A%2F%2Fexodus.desync.com%3A6969"],"infoHash":"a3bf904f253244820353fa61f1c3cafc50a90f7b","infoHashBuffer":{"type":"Buffer","data":[163,191,144,79,37,50,68,130,3,83,250,97,241,195,202,252,80,169,15,123]},"announce":[],"urlList":[]}}